<mxfile host="app.diagrams.net" agent="Mozilla/5.0 (Windows NT 10.0; Win64; x64; rv:130.0) Gecko/20100101 Firefox/130.0" version="24.7.16" pages="3">
  <diagram name="Página-1" id="LYXnQb0VSoi2UjKHM5OV">
    <mxGraphModel dx="1337" dy="1740" grid="0" gridSize="10" guides="1" tooltips="1" connect="1" arrows="1" fold="1" page="0" pageScale="1" pageWidth="827" pageHeight="1169" math="0" shadow="0">
      <root>
        <mxCell id="0" />
        <mxCell id="1" parent="0" />
        <mxCell id="wAgH1Zqmq-RATGkgT6hA-1" value="IMAGEN DE FONDO &amp;nbsp;&amp;nbsp;&amp;nbsp;&amp;nbsp;&amp;nbsp;&amp;nbsp;&amp;nbsp;&amp;nbsp;&amp;nbsp;&amp;nbsp;&amp;nbsp;&amp;nbsp;&amp;nbsp;&amp;nbsp;&amp;nbsp;&amp;nbsp;&amp;nbsp;&amp;nbsp;&amp;nbsp;&amp;nbsp;&amp;nbsp;&amp;nbsp;&amp;nbsp;&amp;nbsp;&amp;nbsp;&amp;nbsp;&amp;nbsp;&amp;nbsp;&amp;nbsp;&amp;nbsp;&amp;nbsp;&amp;nbsp;&amp;nbsp;&amp;nbsp;&amp;nbsp;&amp;nbsp;&amp;nbsp;&amp;nbsp;&amp;nbsp;&amp;nbsp;&amp;nbsp;&amp;nbsp;&amp;nbsp;&amp;nbsp;&amp;nbsp;&amp;nbsp;&amp;nbsp;&amp;nbsp;&amp;nbsp;&amp;nbsp;&amp;nbsp;&amp;nbsp;&amp;nbsp;&amp;nbsp;&amp;nbsp;&amp;nbsp;&amp;nbsp;&amp;nbsp;&amp;nbsp;&amp;nbsp;&amp;nbsp;&amp;nbsp;&amp;nbsp;&amp;nbsp;&amp;nbsp;&amp;nbsp;&amp;nbsp;&amp;nbsp;&amp;nbsp;&amp;nbsp;&amp;nbsp;&amp;nbsp;&amp;nbsp;&amp;nbsp;&amp;nbsp;&amp;nbsp;&amp;nbsp;&amp;nbsp;&amp;nbsp;&amp;nbsp;&amp;nbsp;&amp;nbsp;&amp;nbsp;&amp;nbsp;&amp;nbsp;&amp;nbsp;&amp;nbsp;&amp;nbsp;&amp;nbsp;&amp;nbsp;&amp;nbsp;&amp;nbsp;&amp;nbsp;&amp;nbsp;&amp;nbsp;&amp;nbsp;&amp;nbsp;&amp;nbsp;&amp;nbsp;&amp;nbsp;&amp;nbsp;&amp;nbsp;&amp;nbsp;&amp;nbsp;&amp;nbsp;&amp;nbsp;&amp;nbsp;&amp;nbsp;&amp;nbsp;&amp;nbsp;&amp;nbsp;&amp;nbsp;&amp;nbsp;&amp;nbsp;&amp;nbsp;&amp;nbsp;&amp;nbsp;&amp;nbsp;&amp;nbsp;&amp;nbsp;&amp;nbsp;&amp;nbsp;&amp;nbsp;&amp;nbsp;&amp;nbsp;&amp;nbsp;&amp;nbsp;&amp;nbsp; " style="rounded=0;whiteSpace=wrap;html=1;fontSize=27;" vertex="1" parent="1">
          <mxGeometry x="-305" y="-185" width="1300" height="700" as="geometry" />
        </mxCell>
        <mxCell id="wAgH1Zqmq-RATGkgT6hA-2" value="LOGO" style="rounded=1;whiteSpace=wrap;html=1;fontSize=25;fillColor=#dae8fc;strokeColor=#6c8ebf;" vertex="1" parent="1">
          <mxGeometry x="667" y="-164" width="293" height="112" as="geometry" />
        </mxCell>
        <mxCell id="wAgH1Zqmq-RATGkgT6hA-4" value="&lt;div&gt;MENU&lt;/div&gt;&lt;div&gt;&lt;br&gt;&lt;/div&gt;&lt;div&gt;&lt;br&gt;&lt;/div&gt;&lt;div&gt;&lt;br&gt;&lt;/div&gt;&lt;div&gt;&lt;br&gt;&lt;/div&gt;&lt;div&gt;&lt;br&gt;&lt;/div&gt;" style="rounded=1;whiteSpace=wrap;html=1;fontSize=25;fillColor=#dae8fc;strokeColor=#6c8ebf;" vertex="1" parent="1">
          <mxGeometry x="167.5" y="61.63" width="355" height="206.75" as="geometry" />
        </mxCell>
        <mxCell id="wAgH1Zqmq-RATGkgT6hA-5" value="&lt;div&gt;ICONOS&lt;/div&gt;&lt;div&gt;&lt;br&gt;&lt;/div&gt;&lt;div&gt;Soluciones&lt;span style=&quot;white-space: pre;&quot;&gt;&#x9;&lt;/span&gt;&lt;span style=&quot;white-space: pre;&quot;&gt;&#x9;&lt;/span&gt;Proyectos&lt;span style=&quot;white-space: pre;&quot;&gt;&#x9;&lt;/span&gt;&lt;span style=&quot;white-space: pre;&quot;&gt;&#x9;&lt;/span&gt;Contacto&lt;br&gt;&lt;/div&gt;&lt;div&gt;&lt;br&gt;&lt;/div&gt;" style="rounded=1;whiteSpace=wrap;html=1;fillColor=#f8cecc;strokeColor=#b85450;" vertex="1" parent="1">
          <mxGeometry x="189.5" y="137" width="311" height="74" as="geometry" />
        </mxCell>
        <mxCell id="wAgH1Zqmq-RATGkgT6hA-7" value="&lt;font style=&quot;font-size: 25px;&quot;&gt;ICONOS REDES SOCIALES&lt;/font&gt;" style="rounded=1;whiteSpace=wrap;html=1;fillColor=#dae8fc;strokeColor=#6c8ebf;" vertex="1" parent="1">
          <mxGeometry x="232" y="359" width="226" height="127" as="geometry" />
        </mxCell>
        <mxCell id="wAgH1Zqmq-RATGkgT6hA-9" value="TITULO DE BIENVENIDA" style="rounded=1;whiteSpace=wrap;html=1;fontSize=25;fillColor=#dae8fc;strokeColor=#6c8ebf;" vertex="1" parent="1">
          <mxGeometry x="167" y="-154" width="355.5" height="102" as="geometry" />
        </mxCell>
      </root>
    </mxGraphModel>
  </diagram>
  <diagram id="o4RFEQ6LP6bteld2_UvJ" name="Página-2">
    <mxGraphModel dx="2193" dy="1040" grid="0" gridSize="10" guides="1" tooltips="1" connect="1" arrows="1" fold="1" page="0" pageScale="1" pageWidth="827" pageHeight="1169" math="0" shadow="0">
      <root>
        <mxCell id="0" />
        <mxCell id="1" parent="0" />
        <mxCell id="40PmgeKRgm0L5JLgO-v4-1" value="" style="rounded=0;whiteSpace=wrap;html=1;" vertex="1" parent="1">
          <mxGeometry x="-85" y="25" width="1300" height="700" as="geometry" />
        </mxCell>
        <mxCell id="40PmgeKRgm0L5JLgO-v4-2" value="" style="rounded=0;whiteSpace=wrap;html=1;" vertex="1" parent="1">
          <mxGeometry x="177.5" y="186" width="775" height="455" as="geometry" />
        </mxCell>
        <mxCell id="40PmgeKRgm0L5JLgO-v4-3" value="FORMULARIO DE CONTACTO" style="rounded=1;whiteSpace=wrap;html=1;fillColor=#dae8fc;strokeColor=#6c8ebf;" vertex="1" parent="1">
          <mxGeometry x="208" y="72" width="714" height="86" as="geometry" />
        </mxCell>
        <mxCell id="40PmgeKRgm0L5JLgO-v4-4" value="Nombre" style="rounded=1;whiteSpace=wrap;html=1;fillColor=#e1d5e7;strokeColor=#9673a6;" vertex="1" parent="1">
          <mxGeometry x="208" y="205" width="200" height="60" as="geometry" />
        </mxCell>
        <mxCell id="40PmgeKRgm0L5JLgO-v4-5" value="Apellidos" style="rounded=1;whiteSpace=wrap;html=1;fillColor=#e1d5e7;strokeColor=#9673a6;" vertex="1" parent="1">
          <mxGeometry x="443" y="205" width="200" height="60" as="geometry" />
        </mxCell>
        <mxCell id="40PmgeKRgm0L5JLgO-v4-6" value="Domicilio" style="rounded=1;whiteSpace=wrap;html=1;fillColor=#e1d5e7;strokeColor=#9673a6;" vertex="1" parent="1">
          <mxGeometry x="208" y="296" width="260" height="60" as="geometry" />
        </mxCell>
        <mxCell id="40PmgeKRgm0L5JLgO-v4-7" value="Población" style="rounded=1;whiteSpace=wrap;html=1;fillColor=#e1d5e7;strokeColor=#9673a6;" vertex="1" parent="1">
          <mxGeometry x="661" y="296" width="261" height="60" as="geometry" />
        </mxCell>
        <mxCell id="40PmgeKRgm0L5JLgO-v4-8" value="CP" style="rounded=1;whiteSpace=wrap;html=1;fillColor=#e1d5e7;strokeColor=#9673a6;" vertex="1" parent="1">
          <mxGeometry x="500" y="296" width="130" height="60" as="geometry" />
        </mxCell>
        <mxCell id="40PmgeKRgm0L5JLgO-v4-12" value="DNI" style="rounded=1;whiteSpace=wrap;html=1;fillColor=#e1d5e7;strokeColor=#9673a6;" vertex="1" parent="1">
          <mxGeometry x="677" y="207" width="107" height="60" as="geometry" />
        </mxCell>
        <mxCell id="40PmgeKRgm0L5JLgO-v4-13" value="Telefono" style="rounded=1;whiteSpace=wrap;html=1;fillColor=#e1d5e7;strokeColor=#9673a6;" vertex="1" parent="1">
          <mxGeometry x="817" y="207" width="105" height="60" as="geometry" />
        </mxCell>
        <mxCell id="40PmgeKRgm0L5JLgO-v4-14" value="Razón por la que se pone en contacto" style="rounded=1;whiteSpace=wrap;html=1;fontSize=25;fillColor=#e1d5e7;strokeColor=#9673a6;" vertex="1" parent="1">
          <mxGeometry x="208" y="387" width="260" height="235" as="geometry" />
        </mxCell>
        <mxCell id="40PmgeKRgm0L5JLgO-v4-15" value="Correo Electronico" style="rounded=1;whiteSpace=wrap;html=1;fillColor=#e1d5e7;strokeColor=#9673a6;" vertex="1" parent="1">
          <mxGeometry x="500" y="387" width="418" height="60" as="geometry" />
        </mxCell>
        <mxCell id="40PmgeKRgm0L5JLgO-v4-17" value="Botón de enviar" style="rounded=1;whiteSpace=wrap;html=1;fillColor=#d5e8d4;strokeColor=#82b366;" vertex="1" parent="1">
          <mxGeometry x="618" y="562" width="300" height="60" as="geometry" />
        </mxCell>
        <mxCell id="40PmgeKRgm0L5JLgO-v4-19" value="Botón de reiniciar" style="rounded=1;whiteSpace=wrap;html=1;fillColor=#d5e8d4;strokeColor=#82b366;" vertex="1" parent="1">
          <mxGeometry x="618" y="485" width="300" height="60" as="geometry" />
        </mxCell>
        <mxCell id="40PmgeKRgm0L5JLgO-v4-20" value="Botón de volver" style="rounded=1;whiteSpace=wrap;html=1;fillColor=#d5e8d4;strokeColor=#82b366;" vertex="1" parent="1">
          <mxGeometry x="483" y="562" width="120" height="60" as="geometry" />
        </mxCell>
        <mxCell id="kRpCXzcXFYfFzlZ7XyzE-1" value="LOGO" style="rounded=1;whiteSpace=wrap;html=1;fillColor=#dae8fc;strokeColor=#6c8ebf;" vertex="1" parent="1">
          <mxGeometry x="1003" y="42" width="188" height="79" as="geometry" />
        </mxCell>
        <mxCell id="kRpCXzcXFYfFzlZ7XyzE-2" value="&lt;div&gt;REDES SOCIALES&lt;/div&gt;" style="rounded=1;whiteSpace=wrap;html=1;fillColor=#dae8fc;strokeColor=#6c8ebf;" vertex="1" parent="1">
          <mxGeometry x="505" y="653" width="120" height="60" as="geometry" />
        </mxCell>
      </root>
    </mxGraphModel>
  </diagram>
  <diagram id="MN8y9iGFKvRSuDJ7sCg5" name="Página-3">
    <mxGraphModel grid="0" page="0" gridSize="10" guides="1" tooltips="1" connect="1" arrows="1" fold="1" pageScale="1" pageWidth="827" pageHeight="1169" math="0" shadow="0">
      <root>
        <mxCell id="0" />
        <mxCell id="1" parent="0" />
      </root>
    </mxGraphModel>
  </diagram>
</mxfile>
